<?xml version="1.0" encoding="utf-8"?>
<!-- Generator: Adobe Illustrator 16.0.0, SVG Export Plug-In . SVG Version: 6.00 Build 0)  -->
<!DOCTYPE svg PUBLIC "-//W3C//DTD SVG 1.1//EN" "http://www.w3.org/Graphics/SVG/1.1/DTD/svg11.dtd">
<svg version="1.1" id="Layer_1" xmlns="http://www.w3.org/2000/svg" xmlns:xlink="http://www.w3.org/1999/xlink" x="0px" y="0px"
	 width="85.333px" height="33.667px" viewBox="0 0 85.333 33.667" enable-background="new 0 0 85.333 33.667" xml:space="preserve">
<g>
	<path fill="#1D1D1B" stroke="#1D1D1B" stroke-width="0.5" stroke-miterlimit="10" d="M16.196,4.652H4.827
		c-0.094,0-0.171,0.008-0.171,0.102c0,0.094,0.077,0.102,0.171,0.102l1.746,0.002c0.961,0,1.591,0.631,1.591,1.559v20.63
		c0,0.93-0.629,1.559-1.591,1.559l-1.746,0.002c-0.094,0-0.171,0.007-0.171,0.101c0,0.096,0.077,0.102,0.171,0.102h10.248
		c8.065,0,13.792-4.651,13.792-12.542C28.867,9.132,23.714,4.652,16.196,4.652z M15.459,28.605h-2.126
		c-3.079,0-3.916-0.872-3.916-3.944V4.857h5.914c6.207,0,12.059,3.123,12.059,12.243C27.39,26.667,19.204,28.605,15.459,28.605z"/>
	<path fill="#1D1D1B" stroke="#1D1D1B" stroke-width="0.5" stroke-miterlimit="10" d="M68.188,4.333
		c-8.446,0-12.478,6.943-12.478,12.35c0,6.419,4.286,12.446,12.51,12.446c8.383,0,12.416-6.942,12.416-12.35
		C80.636,10.362,76.413,4.333,68.188,4.333z M68.605,28.861c-5.762,0-11.482-4.435-11.482-12.817
		c0-7.376,4.634-11.442,10.617-11.442c5.761,0,11.481,4.435,11.481,12.817C79.221,24.795,74.587,28.861,68.605,28.861z"/>
	<path fill="#1D1D1B" stroke="#1D1D1B" stroke-width="0.5" stroke-miterlimit="10" d="M54.908,4.652h-7.783
		c-0.096,0-0.172,0.008-0.172,0.102c0,0.094,0.076,0.102,0.172,0.102v0.002h2.416c0.929,0,1.408,0.631,1.408,1.559v13.093
		c0,5.344-2.455,9.319-8.215,9.319c-5.119,0-8.359-3.635-8.359-9.074V6.417c0-0.928,0.631-1.559,1.559-1.559h1.914V4.855
		c0.093,0,0.171-0.007,0.171-0.102c0-0.094-0.078-0.102-0.171-0.102h-8.063c-0.095,0-0.171,0.008-0.171,0.102
		c0,0.094,0.076,0.102,0.171,0.102v0.002h1.778c0.928,0,1.559,0.631,1.559,1.559v13.787c0,5.119,3.79,8.926,9.229,8.926
		c5.92,0,9.271-3.646,9.271-10.334V6.417c0-0.928,0.479-1.559,1.407-1.559h1.881V4.856c0.094,0,0.172-0.007,0.172-0.102
		S55.001,4.652,54.908,4.652z"/>
</g>
</svg>
