<?xml version="1.0" encoding="utf-8"?>
<!-- Generator: Adobe Illustrator 16.0.0, SVG Export Plug-In . SVG Version: 6.00 Build 0)  -->
<!DOCTYPE svg PUBLIC "-//W3C//DTD SVG 1.1//EN" "http://www.w3.org/Graphics/SVG/1.1/DTD/svg11.dtd">
<svg version="1.1" id="Layer_1" xmlns="http://www.w3.org/2000/svg" xmlns:xlink="http://www.w3.org/1999/xlink" x="0px" y="0px"
	 width="165.879px" height="89.111px" viewBox="0 0 165.879 89.111" enable-background="new 0 0 165.879 89.111"
	 xml:space="preserve">
<g>
	<path fill="#231F20" d="M25.477,85.065H5.69c-1.979,0-3.608-1.63-3.608-3.725V6.81c0-1.979,1.629-3.608,3.608-3.608h19.787
		c11.639,0,20.951,9.311,20.951,20.951v39.961C46.428,75.637,37.116,85.065,25.477,85.065z M34.09,24.152
		c0-4.772-3.841-8.613-8.613-8.613H14.42v57.188h11.057c4.772,0,8.613-3.841,8.613-8.613V24.152z"/>
	<path fill="#231F20" d="M83.904,86.345h-2.561c-11.523,0-20.951-9.428-20.951-21.067V6.81c0-1.979,1.747-3.608,3.725-3.608h4.888
		c2.095,0,3.725,1.629,3.725,3.608v58.468c0,4.771,3.841,8.729,8.613,8.729h2.561c4.772,0,8.613-3.958,8.613-8.729V6.81
		c0-1.979,1.629-3.608,3.725-3.608h4.889c1.979,0,3.725,1.629,3.725,3.608v58.468C104.855,76.917,95.427,86.345,83.904,86.345z"/>
	<path fill="#231F20" d="M143.595,86.345h-3.725c-11.521,0-20.951-9.428-20.951-21.067V22.872c0-11.522,9.43-20.95,20.951-20.95
		h3.725c11.523,0,20.951,9.428,20.951,20.95v42.406C164.546,76.917,155.119,86.345,143.595,86.345z M152.208,22.872
		c0-4.771-3.842-8.612-8.613-8.612h-3.725c-4.771,0-8.613,3.841-8.613,8.612v42.406c0,4.771,3.842,8.729,8.613,8.729h3.725
		c4.771,0,8.613-3.958,8.613-8.729V22.872z"/>
</g>
</svg>
