<?xml version="1.0" encoding="utf-8"?>
<!-- Generator: Adobe Illustrator 16.0.0, SVG Export Plug-In . SVG Version: 6.00 Build 0)  -->
<!DOCTYPE svg PUBLIC "-//W3C//DTD SVG 1.1//EN" "http://www.w3.org/Graphics/SVG/1.1/DTD/svg11.dtd">
<svg version="1.1" id="Layer_1" xmlns="http://www.w3.org/2000/svg" xmlns:xlink="http://www.w3.org/1999/xlink" x="0px" y="0px"
	 width="86.667px" height="50px" viewBox="0 0 86.667 50" enable-background="new 0 0 86.667 50" xml:space="preserve">
<g>
	<path fill="#231F20" d="M14.146,45.893h-10.1c-1.01,0-1.842-0.832-1.842-1.902V5.95c0-1.01,0.832-1.842,1.842-1.842h10.1
		c5.94,0,10.693,4.752,10.693,10.693v20.396C24.839,41.08,20.086,45.893,14.146,45.893z M18.542,14.801
		c0-2.435-1.961-4.396-4.396-4.396H8.502v29.19h5.644c2.436,0,4.396-1.963,4.396-4.398V14.801z"/>
	<path fill="#231F20" d="M43.967,46.545h-1.307c-5.882,0-10.693-4.811-10.693-10.752V5.95c0-1.01,0.892-1.842,1.901-1.842h2.495
		c1.069,0,1.9,0.832,1.9,1.842v29.843c0,2.434,1.961,4.455,4.396,4.455h1.307c2.437,0,4.396-2.021,4.396-4.455V5.95
		c0-1.01,0.832-1.842,1.901-1.842h2.495c1.01,0,1.901,0.832,1.901,1.842v29.843C54.662,41.734,49.849,46.545,43.967,46.545z"/>
	<path fill="#231F20" d="M74.435,46.545h-1.901c-5.88,0-10.693-4.811-10.693-10.752V14.148c0-5.881,4.813-10.693,10.693-10.693
		h1.901c5.882,0,10.693,4.812,10.693,10.693v21.645C85.128,41.734,80.317,46.545,74.435,46.545z M78.831,14.148
		c0-2.436-1.96-4.396-4.396-4.396h-1.901c-2.435,0-4.396,1.96-4.396,4.396v21.645c0,2.434,1.962,4.455,4.396,4.455h1.901
		c2.436,0,4.396-2.021,4.396-4.455V14.148z"/>
</g>
</svg>
